<?xml version="1.0" encoding="UTF-8" standalone="no"?>
<!-- Created with Inkscape (http://www.inkscape.org/) -->

<svg
   width="128.0px"
   height="128.0px"
   viewBox="0 0 128.0 128.0"
   version="1.1"
   id="SVGRoot"
   sodipodi:docname="file_icons.svg"
   inkscape:version="1.2.2 (b0a8486541, 2022-12-01)"
   inkscape:export-filename="scene.png"
   inkscape:export-xdpi="96"
   inkscape:export-ydpi="96"
   xmlns:inkscape="http://www.inkscape.org/namespaces/inkscape"
   xmlns:sodipodi="http://sodipodi.sourceforge.net/DTD/sodipodi-0.dtd"
   xmlns="http://www.w3.org/2000/svg"
   xmlns:svg="http://www.w3.org/2000/svg">
  <sodipodi:namedview
     id="namedview21"
     pagecolor="#ffffff"
     bordercolor="#000000"
     borderopacity="0.25"
     inkscape:showpageshadow="2"
     inkscape:pageopacity="0.0"
     inkscape:pagecheckerboard="0"
     inkscape:deskcolor="#d1d1d1"
     inkscape:document-units="px"
     showgrid="true"
     inkscape:zoom="5.1945236"
     inkscape:cx="33.111795"
     inkscape:cy="68.822481"
     inkscape:window-width="1920"
     inkscape:window-height="1011"
     inkscape:window-x="0"
     inkscape:window-y="32"
     inkscape:window-maximized="1"
     inkscape:current-layer="g165">
    <inkscape:grid
       type="xygrid"
       id="grid27" />
  </sodipodi:namedview>
  <defs
     id="defs16">
    <inkscape:perspective
       sodipodi:type="inkscape:persp3d"
       inkscape:vp_x="0 : 64 : 1"
       inkscape:vp_y="0 : 1000 : 0"
       inkscape:vp_z="128 : 64 : 1"
       inkscape:persp3d-origin="64 : 42.666667 : 1"
       id="perspective674" />
  </defs>
  <g
     inkscape:groupmode="layer"
     id="layer3"
     inkscape:label="MAT"
     style="display:none"
     sodipodi:insensitive="true">
    <path
       id="rect748"
       style="opacity:0.8;fill:#ff0000"
       d="m 20,5 c -2.769997,0 -5,2.2300028 -5,5 v 110 c 0,2.77 2.230003,5 5,5 h 90 c 2.77,0 5,-2.23 5,-5 V 35 L 85,5 Z" />
    <path
       style="opacity:1;fill:#800000;fill-opacity:0.988642"
       d="m 85,5 v 30 h 30 z"
       id="path2456" />
    <rect
       style="opacity:1;fill:#800000;fill-opacity:0.988642"
       id="rect2620"
       width="55"
       height="25"
       x="20"
       y="40"
       rx="5"
       ry="5" />
    <text
       xml:space="preserve"
       style="font-style:normal;font-variant:normal;font-weight:normal;font-stretch:normal;font-size:21.3333px;font-family:'Baekmuk Headline';-inkscape-font-specification:'Baekmuk Headline';opacity:1;fill:#ffffff;fill-opacity:0.988642"
       x="24.466667"
       y="59.933311"
       id="text2566"><tspan
         sodipodi:role="line"
         id="tspan2564"
         x="24.466667"
         y="59.933311">MAT</tspan></text>
  </g>
  <g
     inkscape:groupmode="layer"
     id="g2833"
     inkscape:label="OBJ"
     style="display:none"
     sodipodi:insensitive="true">
    <path
       id="path2823"
       style="opacity:0.8;fill:#00ff00"
       d="m 20,5 c -2.769997,0 -5,2.2300028 -5,5 v 110 c 0,2.77 2.230003,5 5,5 h 90 c 2.77,0 5,-2.23 5,-5 V 35 L 85,5 Z" />
    <path
       style="opacity:1;fill:#008000;fill-opacity:0.988642"
       d="m 85,5 v 30 h 30 z"
       id="path2825" />
    <rect
       style="opacity:1;fill:#008000;fill-opacity:0.988642"
       id="rect2827"
       width="55"
       height="25"
       x="20"
       y="40"
       rx="5"
       ry="5" />
    <text
       xml:space="preserve"
       style="font-style:normal;font-variant:normal;font-weight:normal;font-stretch:normal;font-size:21.3333px;font-family:'Baekmuk Headline';-inkscape-font-specification:'Baekmuk Headline';opacity:1;fill:#ffffff;fill-opacity:0.988642"
       x="24.466667"
       y="59.933311"
       id="text2831"><tspan
         sodipodi:role="line"
         id="tspan2829"
         x="24.466667"
         y="59.933311">OBJ</tspan></text>
  </g>
  <g
     inkscape:groupmode="layer"
     id="g3051"
     inkscape:label="PNG"
     style="display:none"
     sodipodi:insensitive="true">
    <path
       id="path3041"
       style="opacity:0.8;fill:#ffff00"
       d="m 20,5 c -2.769997,0 -5,2.2300028 -5,5 v 110 c 0,2.77 2.230003,5 5,5 h 90 c 2.77,0 5,-2.23 5,-5 V 35 L 85,5 Z" />
    <path
       style="opacity:1;fill:#808000;fill-opacity:0.988642"
       d="m 85,5 v 30 h 30 z"
       id="path3043" />
    <rect
       style="opacity:1;fill:#808000;fill-opacity:0.988642"
       id="rect3045"
       width="55"
       height="25"
       x="20"
       y="40"
       rx="5"
       ry="5" />
    <text
       xml:space="preserve"
       style="font-style:normal;font-variant:normal;font-weight:normal;font-stretch:normal;font-size:21.3333px;font-family:'Baekmuk Headline';-inkscape-font-specification:'Baekmuk Headline';opacity:1;fill:#ffffff;fill-opacity:0.988642"
       x="24.466667"
       y="59.933311"
       id="text3049"><tspan
         sodipodi:role="line"
         id="tspan3047"
         x="24.466667"
         y="59.933311">PNG</tspan></text>
  </g>
  <g
     inkscape:groupmode="layer"
     id="g490"
     inkscape:label="PROJECT"
     style="display:none;fill:#37c8ab"
     sodipodi:insensitive="true">
    <path
       id="path480"
       style="opacity:0.8;fill:#37c8ab"
       d="m 20,5 c -2.769997,0 -5,2.2300028 -5,5 v 110 c 0,2.77 2.230003,5 5,5 h 90 c 2.77,0 5,-2.23 5,-5 V 35 L 85,5 Z" />
    <path
       style="opacity:1;fill:#165044;fill-opacity:0.988642"
       d="m 85,5 v 30 h 30 z"
       id="path482" />
    <rect
       style="opacity:1;fill:#165044;fill-opacity:0.988642;stroke-width:1.20605"
       id="rect484"
       width="80"
       height="25"
       x="20"
       y="40"
       rx="7.2727275"
       ry="5" />
    <text
       xml:space="preserve"
       style="font-style:normal;font-variant:normal;font-weight:normal;font-stretch:normal;font-size:21.3333px;font-family:'Baekmuk Headline';-inkscape-font-specification:'Baekmuk Headline, Normal';font-variant-ligatures:normal;font-variant-caps:normal;font-variant-numeric:normal;font-variant-east-asian:normal;opacity:1;fill:#ffffff;fill-opacity:0.988642"
       x="24.466667"
       y="59.933311"
       id="text488"
       inkscape:label="text488"><tspan
         sodipodi:role="line"
         id="tspan492"
         x="24.466667"
         y="59.933311">EMBER</tspan></text>
  </g>
  <g
     inkscape:groupmode="layer"
     id="g165"
     inkscape:label="SCENE"
     style="display:inline;fill:#ff7f2a"
     sodipodi:insensitive="true">
    <path
       id="path155"
       style="opacity:0.8;fill:#ff7f2a"
       d="m 20,5 c -2.769997,0 -5,2.2300028 -5,5 v 110 c 0,2.77 2.230003,5 5,5 h 90 c 2.77,0 5,-2.23 5,-5 V 35 L 85,5 Z" />
    <path
       style="opacity:1;fill:#d45500;fill-opacity:0.988642"
       d="m 85,5 v 30 h 30 z"
       id="path157" />
    <rect
       style="opacity:1;fill:#d45500;fill-opacity:0.988642;stroke-width:1.20605"
       id="rect159"
       width="80"
       height="25"
       x="20"
       y="40"
       rx="7.2727275"
       ry="5" />
    <text
       xml:space="preserve"
       style="font-style:normal;font-variant:normal;font-weight:normal;font-stretch:normal;font-size:21.3333px;font-family:'Baekmuk Headline';-inkscape-font-specification:'Baekmuk Headline, Normal';font-variant-ligatures:normal;font-variant-caps:normal;font-variant-numeric:normal;font-variant-east-asian:normal;opacity:1;fill:#ffffff;fill-opacity:0.988642"
       x="24.466667"
       y="59.933311"
       id="text163"
       inkscape:label="text163"><tspan
         sodipodi:role="line"
         id="tspan428"
         x="24.466667"
         y="59.933311">SCENE</tspan></text>
  </g>
  <g
     inkscape:groupmode="layer"
     id="g221"
     inkscape:label="UNKNOWN"
     style="display:none"
     sodipodi:insensitive="true">
    <path
       id="path211"
       style="opacity:0.8;fill:#ffffff"
       d="m 20,5 c -2.769997,0 -5,2.2300028 -5,5 v 110 c 0,2.77 2.230003,5 5,5 h 90 c 2.77,0 5,-2.23 5,-5 V 35 L 85,5 Z" />
    <path
       style="opacity:1;fill:#b3b3b3;fill-opacity:0.988642"
       d="m 85,5 v 30 h 30 z"
       id="path213" />
  </g>
  <g
     inkscape:groupmode="layer"
     id="g158"
     inkscape:label="folder"
     style="display:none"
     sodipodi:insensitive="true">
    <rect
       style="fill:#d4aa00;fill-opacity:0.988642"
       id="rect262"
       width="110"
       height="75"
       x="10"
       y="35"
       rx="5"
       ry="5" />
    <rect
       style="fill:#d4aa00;fill-opacity:0.988642;stroke-width:0.948683"
       id="rect316"
       width="45"
       height="20"
       x="10"
       y="25"
       rx="4.5"
       ry="5" />
    <rect
       style="display:inline;fill:#decd87;fill-opacity:0.988642;stroke-width:0.966092"
       id="rect262-3"
       width="110"
       height="70"
       x="10"
       y="40"
       rx="5"
       ry="4.6666665" />
  </g>
</svg>
